<svg version="1.1" xmlns="http://www.w3.org/2000/svg" style="display: block;" viewBox="0 0 2048 2048" width="1024" height="1024">
<path transform="translate(0,0)" fill="rgb(245,243,237)" d="M 0 0 L 2048 0 L 2048 2048 L 0 2048 L 0 0 z"/>
<path transform="translate(0,0)" fill="rgb(85,70,69)" d="M 1404.52 91.0927 C 1407.31 90.7995 1410.27 90.4161 1413 91.2342 C 1424.43 94.657 1476.84 119.645 1486.88 126.509 C 1489.01 127.964 1491.22 129.615 1492.47 131.931 C 1497.52 141.224 1500.25 167.673 1502.3 179.28 C 1529.36 171.808 1565.61 160.885 1593.16 171.077 C 1599.53 173.433 1605.32 177.596 1607.88 184.095 C 1610.5 190.732 1609.37 198.17 1606.42 204.488 C 1593.07 233.058 1547.89 254.087 1520.05 264.445 C 1532.66 321.188 1540.22 381.904 1555.2 437.497 C 1596.9 422.217 1677.99 382.249 1720.31 401.484 C 1726.74 404.405 1732.32 409.178 1734.74 415.971 C 1737.38 423.352 1735.91 431.212 1732.58 438.119 C 1710.84 483.198 1622.43 507.974 1578.5 524.228 A 41402.7 41402.7 0 0 0 1676.22 997.79 L 1707.72 1152.08 C 1714.05 1183.26 1719.61 1214.89 1727.63 1245.67 C 1738.52 1242.48 1752.11 1241.11 1762.87 1245.21 C 1771.87 1248.64 1779.81 1255.43 1783.72 1264.34 C 1787.53 1273.05 1787.16 1283.58 1783.51 1292.28 C 1776.59 1308.79 1760.43 1315.22 1745.07 1321.41 C 1754.19 1368.42 1764.57 1415.27 1773.95 1462.25 C 1787 1470.8 1801.75 1477.19 1815.62 1484.33 C 1832.25 1492.9 1848.6 1502.03 1865.23 1510.6 C 1875.74 1516.01 1890.81 1521.34 1899.23 1529.53 C 1899.7 1542.77 1901.88 1600.01 1898.05 1609.82 C 1895.51 1616.32 1859.54 1630.28 1851.03 1633.89 C 1838.34 1629.32 1825.94 1621.74 1813.9 1615.62 A 2461.24 2461.24 0 0 0 1749.77 1583.93 L 1600.1 1512.73 C 1556.27 1491.79 1512.97 1470.39 1468.34 1451.13 C 1441.11 1461.56 1414.19 1473.28 1387.08 1484.07 C 1285.91 1524.35 1185.08 1565.38 1083.45 1604.49 C 1086.7 1609.72 1089.75 1615.03 1092.77 1620.39 L 1093.81 1621.03 L 1092.89 1622.03 C 1088.85 1616.51 1085.21 1610.66 1081.17 1605.12 C 1069.85 1608.55 1058.89 1613.54 1047.93 1617.96 L 994.709 1639.24 C 950.449 1656.73 905.313 1672.84 861.747 1691.95 C 864.952 1710.46 868.564 1730.17 873.909 1748.16 C 885.761 1758.28 904.049 1764.93 918.001 1771.93 A 4352.94 4352.94 0 0 0 1033.03 1827.98 C 1051 1836.29 1071.02 1842.66 1088.2 1852.27 C 1092.27 1854.55 1094.73 1855.82 1095.88 1860.5 C 1097.53 1867.25 1098.05 1935.99 1095.73 1939.21 C 1090.85 1945.98 1047.99 1962.53 1037.98 1964.99 A 2671.18 2671.18 0 0 0 957.749 1926.48 C 931.388 1914.27 905.508 1901.05 879.256 1888.6 L 476.247 1695.38 A 19213.4 19213.4 0 0 1 271.833 1597.26 L 199 1561.45 C 183.297 1553.81 166.627 1546.81 151.677 1537.79 C 147.616 1529.69 146.214 1433.35 148.354 1421.12 C 153.686 1412.25 184.554 1402.97 195.032 1398.33 C 228.19 1408.99 258.266 1429.47 289.533 1444.5 C 294.558 1403.85 301.169 1363.39 306.927 1322.84 L 343.504 1067.52 C 325.215 1071.92 307.03 1073.17 289.678 1064.49 C 278.544 1058.91 269.955 1049.59 266.267 1037.58 C 262.107 1024.03 264.645 1007.92 271.505 995.615 C 282.813 975.341 302.364 968.11 324.145 966.015 C 332.866 965.176 341.658 965.109 350.129 962.681 C 350.565 962.556 350.996 962.416 351.43 962.284 A 406.492 406.492 0 0 1 346.957 959.12 C 342.192 955.766 338.266 953.008 335.61 947.674 C 333.44 943.314 333.126 938.678 334.733 934.066 C 339.184 921.288 354.298 915.259 365.555 909.977 C 372.272 873.071 376.597 835.326 381.906 798.163 C 387.996 755.532 394.972 712.962 400.498 670.263 C 387.4 674.263 374.546 679.226 361.675 683.904 C 356.753 695.859 350.683 706.899 340.941 715.622 C 326.699 728.374 307.76 734.335 288.792 733.114 C 271.545 732.003 254.119 725.492 242.535 712.253 C 229.095 696.895 223.564 675.343 225.169 655.274 C 226.865 634.082 236.002 613.692 252.561 600.012 C 265.476 589.342 281.915 585.582 298.368 587.255 C 318.7 589.322 334.585 600.745 347.299 616.1 C 369 608.197 390.262 599.199 412.272 592.106 C 417.457 550.57 424.897 509.207 431.176 467.817 C 435.356 440.269 437.964 411.88 443.527 384.616 C 444.576 379.474 446.127 372.626 449.116 368.317 C 455.719 358.797 469.328 356.276 479.879 353.922 C 491.064 357.094 549.667 384.253 559.613 390.721 C 562.145 392.367 564.456 394.027 565.866 396.764 C 569.955 404.706 573.711 431.744 576.121 442.209 C 586.082 432.817 597.079 423.911 609.691 418.358 C 629.959 409.436 651.837 402.988 672.676 395.364 L 822.28 340.886 A 12169.8 12169.8 0 0 1 1015.72 269.167 L 1074.11 247.59 C 1090.69 241.512 1107.33 234.829 1124.71 231.429 C 1148.61 226.753 1175.12 231.484 1195.46 245.245 C 1227.42 235.071 1259.02 222.446 1290.29 210.318 C 1313.6 201.278 1337.05 192.72 1360.27 183.44 C 1366.28 162.775 1367.68 128.305 1374.61 111.292 C 1379.31 99.7289 1393.9 95.6918 1404.52 91.0927 z"/>
<path transform="translate(0,0)" fill="rgb(245,243,237)" d="M 1481.84 1330.27 C 1485.93 1331.07 1491.71 1331.75 1494.39 1335.25 L 1493.87 1337.15 C 1491.05 1338.39 1488.72 1339.83 1485.57 1339 C 1483.05 1336.67 1482.66 1333.46 1481.84 1330.27 z"/>
<path transform="translate(0,0)" fill="rgb(245,243,237)" d="M 1189.99 1278.18 C 1193.11 1281.69 1194.79 1287.68 1196.6 1292.03 L 1187.8 1287.81 L 1176.18 1282.68 L 1189.99 1278.18 z"/>
<path transform="translate(0,0)" fill="rgb(245,243,237)" d="M 1120.42 1268.85 C 1125.42 1270.83 1134.6 1273.2 1138.22 1276.86 L 1136.63 1278.67 L 1127.62 1283.3 L 1120.42 1268.85 z"/>
<path transform="translate(0,0)" fill="rgb(245,243,237)" d="M 1015.85 1219.49 C 1021.81 1221.96 1031.86 1224.66 1036.31 1229.07 L 1034.74 1230.53 L 1022.57 1235.23 C 1020 1230.2 1018.01 1224.71 1015.85 1219.49 z"/>
<path transform="translate(0,0)" fill="rgb(245,243,237)" d="M 1339.66 1377.72 C 1346.33 1379.43 1353.77 1381.8 1359.98 1384.8 C 1362.27 1385.91 1363.75 1386.35 1364.61 1388.87 L 1362.73 1390.36 L 1348.78 1395.13 C 1345.06 1389.52 1342.16 1383.96 1339.66 1377.72 z"/>
<path transform="translate(0,0)" fill="rgb(245,243,237)" d="M 1164.83 1184.3 C 1171.71 1186.49 1178.45 1189.95 1185.07 1192.88 L 1183.59 1226.38 L 1182.88 1226.58 C 1178.24 1221.76 1167.79 1191.85 1164.83 1184.3 z"/>
<path transform="translate(0,0)" fill="rgb(245,243,237)" d="M 360.755 920.766 L 362.38 921.169 C 364.997 927.154 359.732 949.985 358.446 957.206 L 352.262 952.299 C 349.417 950.446 345.832 948.293 344.126 945.256 C 342.581 942.507 342.384 939.616 343.252 936.592 C 345.322 929.375 354.783 924.393 360.755 920.766 z"/>
<path transform="translate(0,0)" fill="rgb(245,243,237)" d="M 1317.08 1082.6 C 1322.61 1089.91 1326.07 1102.66 1329.56 1111.3 C 1327.12 1123.44 1324.73 1135.41 1323.5 1147.75 C 1317.75 1139.73 1314.07 1128.84 1310.31 1119.7 C 1313.25 1107.42 1315.19 1095.06 1317.08 1082.6 z"/>
<path transform="translate(0,0)" fill="rgb(245,243,237)" d="M 1326.33 1201.74 C 1331.62 1208.13 1344.4 1242.5 1347.94 1251.99 L 1346.99 1253.06 L 1344 1252.08 C 1337.73 1249.02 1324.23 1245.62 1320.59 1239.29 C 1317.21 1233.42 1324.86 1209.79 1326.33 1201.74 z"/>
<path transform="translate(0,0)" fill="rgb(245,243,237)" d="M 680.69 558.185 C 681.682 561.913 679.485 566.94 677.742 570.315 C 673.992 577.576 666.88 583.301 659.111 585.762 C 651.61 588.138 646.059 586.748 639.283 583.128 C 637.753 581.626 634.291 579.179 634.208 577.109 C 644.602 569.729 668.075 561.68 680.69 558.185 z"/>
<path transform="translate(0,0)" fill="rgb(245,243,237)" d="M 1305.65 1152.82 C 1311.17 1159.17 1314.74 1168.41 1317.32 1176.31 C 1313.5 1189.49 1311.69 1203.09 1308.17 1216.35 L 1306.68 1215.75 C 1303.94 1207.51 1299.94 1199.63 1296.3 1191.75 L 1305.65 1152.82 z"/>
<path transform="translate(0,0)" fill="rgb(245,243,237)" d="M 1611.02 1394.07 C 1615.09 1398.03 1618.77 1424.18 1620.07 1430.78 C 1612.63 1428.17 1605.49 1424.42 1598.36 1421.04 A 816.776 816.776 0 0 1 1575.01 1409.25 C 1587.1 1404.47 1599.04 1399.15 1611.02 1394.07 z"/>
<path transform="translate(0,0)" fill="rgb(245,243,237)" d="M 1341.01 945.657 C 1347.8 956.067 1352.66 971.026 1356.94 982.731 A 2208.49 2208.49 0 0 0 1349.16 1014.77 L 1348.8 1015.25 C 1345.77 1013.93 1336.61 988.109 1334.65 983.384 L 1341.01 945.657 z"/>
<path transform="translate(0,0)" fill="rgb(245,243,237)" d="M 336.124 1007.4 L 350.53 1008.33 C 350.022 1014.11 349.061 1019.87 348.243 1025.62 C 339.321 1029.44 331.541 1031.65 321.793 1032.07 C 318.424 1031.36 314.772 1030.64 311.613 1029.25 C 309.151 1028.17 307.988 1026.57 306.939 1024.14 C 307.281 1021.62 307.37 1020.68 309.029 1018.64 C 315.397 1010.79 326.676 1008.58 336.124 1007.4 z"/>
<path transform="translate(0,0)" fill="rgb(245,243,237)" d="M 1330.26 1013.7 C 1334.67 1019.06 1340.91 1038.27 1343.98 1045.55 C 1342.02 1059.46 1339.46 1073.12 1336.66 1086.88 C 1330.79 1077.77 1326.84 1064.72 1322.51 1054.62 A 1774.33 1774.33 0 0 0 1330.26 1013.7 z"/>
<path transform="translate(0,0)" fill="rgb(245,243,237)" d="M 1199.82 1200.58 C 1208.11 1205.76 1219.15 1237.69 1223.3 1248 L 1212.47 1252.7 L 1197.78 1258.17 C 1194.45 1239.74 1197.2 1219.07 1199.82 1200.58 z"/>
<path transform="translate(0,0)" fill="rgb(245,243,237)" d="M 1429.99 1307.64 A 1489.21 1489.21 0 0 1 1460.88 1319.94 C 1463.64 1325.08 1466.74 1330.28 1469.07 1335.62 C 1470.51 1338.94 1471.46 1342.28 1470.11 1345.65 L 1465.5 1347.44 L 1449.76 1353.12 C 1442.12 1338.63 1436.27 1322.76 1429.99 1307.64 z"/>
<path transform="translate(0,0)" fill="rgb(245,243,237)" d="M 1069.36 1243.36 C 1079.81 1246.99 1090.39 1253.71 1100.34 1258.75 C 1103.58 1264.7 1113.96 1283.8 1112.9 1289.86 L 1110.62 1290.97 C 1104.89 1293.35 1098.96 1295.37 1093.14 1297.53 A 4750.4 4750.4 0 0 0 1069.36 1243.36 z"/>
<path transform="translate(0,0)" fill="rgb(245,243,237)" d="M 1272.6 638.997 L 1273.92 639.876 C 1274.06 647.292 1271.54 655.727 1270.2 663.038 A 2087.05 2087.05 0 0 0 1262.17 707.53 L 1255.65 691.248 L 1240.66 652.274 L 1272.6 638.997 z"/>
<path transform="translate(0,0)" fill="rgb(245,243,237)" d="M 1746.16 1261.11 C 1750.51 1260.8 1754.83 1260.5 1759.02 1261.97 C 1762.88 1263.32 1766.08 1265.87 1767.84 1269.61 C 1769.84 1273.86 1769.51 1278.9 1767.92 1283.23 C 1764.93 1291.36 1759.72 1294.74 1752.34 1298.26 L 1739.66 1303.93 A 1440.81 1440.81 0 0 0 1731.05 1266.6 C 1736.02 1264.24 1740.88 1262.64 1746.16 1261.11 z"/>
<path transform="translate(0,0)" fill="rgb(245,243,237)" d="M 962.834 1193.02 C 973.785 1196.93 984.48 1204.74 994.961 1210.02 C 999.346 1220 1005.03 1229.44 1008.75 1239.72 C 1007.15 1242.15 1004.43 1242.82 1001.84 1244.06 C 996.715 1246.44 991.378 1248.44 986.139 1250.55 C 979.064 1231.11 969.655 1212.57 962.834 1193.02 z"/>
<path transform="translate(0,0)" fill="rgb(245,243,237)" d="M 1284.76 1350.42 C 1296.92 1354.34 1308.59 1362.5 1319.83 1368.6 C 1323.08 1374.79 1334.87 1394.86 1333.42 1401.52 L 1330.61 1403 C 1324.79 1405.44 1318.72 1407.26 1312.72 1409.21 C 1302.72 1389.98 1293.9 1370.08 1284.76 1350.42 z"/>
<path transform="translate(0,0)" fill="rgb(245,243,237)" d="M 896.506 1092.43 C 897.959 1092.38 899.559 1092.23 900.999 1092.39 C 903.838 1092.71 904.458 1093.04 906.116 1095.38 C 910.23 1101.18 932.108 1153.37 931.294 1158.09 L 928.517 1156.59 C 916.455 1148.05 903.743 1138.95 895.47 1126.43 C 888.967 1116.59 887.57 1106.33 890.131 1094.89 C 892.412 1092.63 893.402 1092.88 896.506 1092.43 z"/>
<path transform="translate(0,0)" fill="rgb(245,243,237)" d="M 1228.94 1261.03 C 1235.28 1268 1249.75 1307.73 1254.49 1319.38 C 1249.19 1316.86 1243.95 1314.17 1238.7 1311.55 L 1219.63 1301.79 C 1214.12 1292.05 1209.64 1281.66 1204.9 1271.53 L 1228.94 1261.03 z"/>
<path transform="translate(0,0)" fill="rgb(245,243,237)" d="M 692.862 558.393 L 692.857 560.077 C 692.878 569.006 691.466 577.147 687.85 585.332 C 682.607 597.202 673.58 606.355 661.286 610.813 C 650.55 614.705 636.308 614.759 625.895 609.599 C 619.022 606.193 616.132 604.081 613.671 596.739 L 610.135 584.966 L 621.385 581.589 C 627.59 587.971 635.416 593.454 643.946 596.178 C 652.484 598.905 661.263 598.295 669.244 594.158 C 683.626 586.704 688.273 572.678 692.862 558.393 z"/>
<path transform="translate(0,0)" fill="rgb(245,243,237)" d="M 940.75 1284.95 C 944.607 1286.8 965.498 1334.48 969.278 1342.67 C 963.67 1345.38 957.935 1347.88 952.26 1350.45 L 950.388 1350.59 C 943.012 1342.43 928.979 1304.32 924.45 1292.06 L 940.75 1284.95 z"/>
<path transform="translate(0,0)" fill="rgb(245,243,237)" d="M 471.346 370.8 C 484.264 370.741 526.319 394.267 539.536 400.835 L 524.93 406.992 C 520.969 408.789 516.871 410.293 512.818 411.869 C 494.968 402.39 477.627 392.045 460.133 381.933 C 463.162 376.983 466.528 374.03 471.346 370.8 z"/>
<path transform="translate(0,0)" fill="rgb(245,243,237)" d="M 627.546 486.223 C 636.576 485.579 656.017 486.041 662.938 492.594 C 664.059 493.657 663.683 493.495 663.604 495.191 C 648.363 500.763 633.177 506.11 618.247 512.497 C 610.611 515.774 602.711 518.505 594.92 521.392 C 592.946 513.85 591.321 506.214 589.616 498.608 C 602.035 493.713 614.352 488.63 627.546 486.223 z"/>
<path transform="translate(0,0)" fill="rgb(245,243,237)" d="M 1406.49 105.07 C 1427.88 113.907 1448.45 124.473 1469.1 134.903 C 1462.11 137.062 1455.38 139.285 1448.72 142.313 L 1437.17 147.203 C 1426.17 140.125 1395.15 125.647 1388.81 116.086 C 1391.03 110.564 1401.18 107.696 1406.49 105.07 z"/>
<path transform="translate(0,0)" fill="rgb(245,243,237)" d="M 1014.82 1255.93 C 1020.04 1259.84 1038.29 1305.88 1042.82 1316.17 C 1035.84 1319.08 1028.53 1321.37 1021.38 1323.86 C 1016.01 1318.47 997.116 1274.3 993.898 1264.96 L 1014.82 1255.93 z"/>
<path transform="translate(0,0)" fill="rgb(245,243,237)" d="M 1049.49 1241.83 L 1051.68 1242.2 C 1059.8 1253.96 1072.46 1288.32 1078.99 1303.6 A 667.243 667.243 0 0 0 1057.86 1310.94 C 1052.27 1306.46 1033.1 1259.39 1029.08 1249.94 L 1049.49 1241.83 z"/>
<path transform="translate(0,0)" fill="rgb(245,243,237)" d="M 445.719 837.299 C 448.397 837.007 451.133 836.798 453.827 836.797 C 461.151 836.795 468.085 841.029 473 846.225 C 484.433 858.313 488.821 878.037 487.93 894.285 C 487.235 906.968 483.33 916.907 473.792 925.453 C 470.307 927.778 466.668 929.478 462.89 931.253 C 465.353 926.071 467.241 920.942 468.45 915.34 C 472.959 894.441 469.742 873.255 457.448 855.684 C 453.436 849.949 448.254 844.977 444.485 839.206 L 445.719 837.299 z"/>
<path transform="translate(0,0)" fill="rgb(245,243,237)" d="M 978.069 1269.84 C 978.277 1269.93 978.506 1269.98 978.694 1270.11 C 983.029 1273.03 1002.66 1320.72 1006.26 1329.92 C 999.333 1332.95 992.283 1335.6 985.217 1338.27 C 985.03 1338.23 984.828 1338.23 984.655 1338.15 C 979.394 1335.59 960.037 1288.11 956.403 1280.12 A 1416.78 1416.78 0 0 1 978.069 1269.84 z"/>
<path transform="translate(0,0)" fill="rgb(245,243,237)" d="M 718.992 662.203 C 721.223 665.11 745.298 733.075 749.247 743.176 L 732.211 749.231 L 728.949 749.874 C 723.752 744.069 706.41 685.125 702.328 672.882 L 718.992 662.203 z"/>
<path transform="translate(0,0)" fill="rgb(245,243,237)" d="M 1204.23 1111.78 C 1209.05 1118.57 1212.29 1128.82 1215.7 1136.47 L 1242.37 1197.01 C 1243.42 1199.45 1244.96 1202.16 1244.01 1204.68 L 1241.55 1203.9 C 1232.16 1198.82 1222.93 1193.93 1212.72 1190.7 C 1207.15 1179.24 1201.76 1167.85 1196.98 1156.04 C 1200.97 1142.09 1201.28 1126.15 1204.23 1111.78 z"/>
<path transform="translate(0,0)" fill="rgb(245,243,237)" d="M 1379.62 1284.56 C 1387.97 1287.59 1402.22 1293.18 1408.35 1299.65 C 1412.75 1304.28 1436 1353.64 1436.15 1359 L 1432.7 1360.76 L 1414.13 1367.47 C 1403.02 1339.69 1390.57 1312.43 1379.62 1284.56 z"/>
<path transform="translate(0,0)" fill="rgb(245,243,237)" d="M 1880.28 1541.87 L 1881.13 1542.08 C 1884.42 1546.75 1882.88 1591.45 1882.53 1599.63 C 1873.44 1604.62 1863.81 1608.75 1854.4 1613.13 L 1852.49 1612.63 C 1850.23 1607.14 1852.08 1564.22 1852.06 1554.23 C 1860.9 1549.39 1870.98 1545.82 1880.28 1541.87 z"/>
<path transform="translate(0,0)" fill="rgb(245,243,237)" d="M 1064.96 526.063 L 1066.39 526.153 C 1070.77 530.932 1091.33 600.864 1095.36 613.437 L 1078.63 619.983 C 1072.47 615.621 1052.57 545.132 1048.49 531.972 C 1053.88 529.78 1059.46 527.98 1064.96 526.063 z"/>
<path transform="translate(0,0)" fill="rgb(245,243,237)" d="M 750.799 647.011 L 752.986 647.52 C 762.73 675.45 772.412 703.328 782.846 731.013 L 764.517 738.128 L 763.031 737.843 C 759.555 732.994 735.898 663.168 733.301 653.457 C 739.222 651.512 745 649.29 750.799 647.011 z"/>
<path transform="translate(0,0)" fill="rgb(245,243,237)" d="M 785.388 632.9 L 786.693 633.257 C 792.32 642.255 812.079 704.948 815.675 718.34 C 809.681 720.583 803.52 722.498 797.456 724.554 L 796.787 724.62 C 791.969 720.751 771.001 651.734 767.599 640.459 C 773.323 637.617 779.483 635.361 785.388 632.9 z"/>
<path transform="translate(0,0)" fill="rgb(245,243,237)" d="M 819.491 619.998 L 820.336 620.1 C 827.769 631.198 845.64 689.539 850.862 704.928 C 844.935 706.824 839.091 709.142 833.241 711.273 L 830.997 711.726 C 827.471 709.347 805.17 638.18 801.365 627.022 C 807.506 624.887 813.493 622.507 819.491 619.998 z"/>
<path transform="translate(0,0)" fill="rgb(245,243,237)" d="M 1224.04 658.039 C 1228.46 661.229 1251.31 721.91 1255.97 733.417 C 1254.04 743.335 1253.02 755.093 1249.16 764.345 L 1247.81 764.788 L 1245.89 761.571 C 1232.77 729.209 1217.87 697.474 1205.28 664.928 L 1224.04 658.039 z"/>
<path transform="translate(0,0)" fill="rgb(245,243,237)" d="M 960.726 565.046 L 962.185 565.768 C 967.277 576.83 970.561 589.255 974.228 600.876 A 1683.82 1683.82 0 0 1 990.52 654.251 C 984.729 656.697 978.605 658.544 972.648 660.558 L 972.261 660.572 C 967.255 657.179 946.244 583.169 943.276 572.043 C 948.966 569.426 954.881 567.294 960.726 565.046 z"/>
<path transform="translate(0,0)" fill="rgb(245,243,237)" d="M 925.961 577.9 C 929.715 579.994 953.277 656.123 956.658 666.32 C 950.831 668.828 944.56 670.627 938.541 672.642 L 937.509 672.507 C 930.237 663.846 912.259 600.966 908.179 586.363 L 925.961 577.9 z"/>
<path transform="translate(0,0)" fill="rgb(245,243,237)" d="M 1021.71 1125.33 C 1029.35 1127.78 1036.83 1130.84 1044.32 1133.71 C 1051.76 1149.54 1058.13 1165.86 1065.21 1181.85 C 1072.86 1199.13 1081.33 1216.16 1087.93 1233.87 C 1079.2 1231.37 1070.77 1226.83 1062.77 1222.6 A 3381.35 3381.35 0 0 1 1021.71 1125.33 z"/>
<path transform="translate(0,0)" fill="rgb(245,243,237)" d="M 1032.36 537.937 L 1032.5 538.653 L 1033.08 537.82 C 1036.47 540.886 1058.19 614.937 1061.76 625.57 C 1055.62 628.804 1049.23 631.243 1042.77 633.752 C 1037.96 630.618 1016.73 555.807 1013.92 544.967 L 1032.36 537.937 z"/>
<path transform="translate(0,0)" fill="rgb(245,243,237)" d="M 892.218 592.074 C 894.209 594.084 917.568 666.64 922.043 679.054 C 915.393 682.08 908.27 684.249 901.363 686.634 C 896.284 677.844 893.432 664.835 890.19 655.128 C 884.073 636.816 877.432 618.637 871.839 600.158 C 878.755 597.685 885.49 595.02 892.218 592.074 z"/>
<path transform="translate(0,0)" fill="rgb(245,243,237)" d="M 856.453 605.889 L 858.345 606.705 C 867.635 635.365 876.369 664.183 885.831 692.798 C 879.072 695.462 872.188 697.757 865.313 700.096 C 860.095 688.248 856.806 674.769 852.589 662.461 C 847.087 646.405 840.733 630.664 835.08 614.661 L 856.453 605.889 z"/>
<path transform="translate(0,0)" fill="rgb(245,243,237)" d="M 1100.71 511.018 C 1106.23 519.013 1126.72 584.381 1132.03 599.354 L 1113.34 607.058 L 1111.16 607.533 C 1106.26 602.868 1085.88 530.626 1082.36 518.538 L 1100.71 511.018 z"/>
<path transform="translate(0,0)" fill="rgb(245,243,237)" d="M 920.627 1093.05 C 929.971 1094.66 939.209 1097.32 948.402 1099.63 C 961.772 1123.53 975.639 1160.13 985.458 1186.23 C 974.94 1182.57 964.043 1175.59 953.952 1170.66 C 941.935 1145.2 932.966 1118.47 920.627 1093.05 z"/>
<path transform="translate(0,0)" fill="rgb(245,243,237)" d="M 1134.7 499.099 C 1136.58 500.62 1165.35 576.411 1169.14 585.514 C 1163.04 588.122 1156.67 590.294 1150.45 592.647 C 1148.72 593.016 1147.7 593.093 1145.98 593.034 C 1139.69 585.093 1119.96 518.398 1116.94 505.925 L 1134.7 499.099 z"/>
<path transform="translate(0,0)" fill="rgb(245,243,237)" d="M 1169.46 485.811 L 1171.63 486.367 C 1182.09 514.892 1196.13 542.504 1205.34 571.399 A 1879.12 1879.12 0 0 0 1186.34 579.113 C 1184.47 579.788 1184.85 579.944 1182.74 579.284 C 1173.06 550.491 1160.68 522.567 1150.75 493.821 L 1169.46 485.811 z"/>
<path transform="translate(0,0)" fill="rgb(245,243,237)" d="M 995.619 551.881 L 998.091 552.296 C 1004.4 561.753 1021.59 622.576 1027.53 638.798 L 1009.21 646.933 L 1005.55 647.566 C 1001.03 640.968 981.274 571.503 977.376 558.795 A 698.312 698.312 0 0 0 995.619 551.881 z"/>
<path transform="translate(0,0)" fill="rgb(245,243,237)" d="M 906.737 1160.8 C 915.16 1167.3 939.1 1179.29 942.959 1186.47 C 954.399 1207.74 962.632 1232.05 972.439 1254.22 C 971.577 1256.58 969.686 1256.85 967.52 1257.95 L 950.864 1264.48 C 945.559 1254.19 941.38 1242.92 936.794 1232.28 A 4876.83 4876.83 0 0 1 906.737 1160.8 z"/>
<path transform="translate(0,0)" fill="rgb(245,243,237)" d="M 1117.12 1165.44 C 1126.38 1168.17 1135.29 1171.82 1144.27 1175.37 C 1151.66 1189.06 1157.37 1204.22 1163.73 1218.45 C 1170.59 1233.8 1178.22 1248.87 1184.73 1264.36 C 1183.7 1266.72 1182.82 1266.6 1180.62 1267.75 C 1175.78 1270.27 1170.77 1272.26 1165.71 1274.29 C 1147.46 1238.95 1133.36 1201.72 1117.12 1165.44 z"/>
<path transform="translate(0,0)" fill="rgb(245,243,237)" d="M 709.8 1618.12 C 715.138 1617.54 718.974 1617.4 723.844 1619.96 C 737.936 1627.36 746.781 1646.87 750.993 1661.56 C 756.202 1679.72 757.238 1701.86 747.747 1718.74 C 744.193 1720.86 740.202 1722.39 736.419 1724.06 C 734.178 1725 731.959 1725.71 729.637 1726.41 C 728.458 1724.86 729.277 1724.48 729.908 1722.65 C 736.62 1703.25 735.179 1681.63 728.197 1662.44 C 721.892 1645.1 712.519 1631.73 695.534 1623.7 C 700.282 1621.38 704.761 1619.66 709.8 1618.12 z"/>
<path transform="translate(0,0)" fill="rgb(245,243,237)" d="M 1229.7 1324.51 C 1230.38 1324.72 1231.06 1324.94 1231.72 1325.2 C 1241.69 1329.18 1255.38 1334.29 1263.1 1341.79 C 1270.62 1349.09 1292.81 1401.02 1298.64 1414.38 C 1297.57 1416.82 1295.47 1417.22 1293.16 1418.4 A 827.104 827.104 0 0 1 1276.89 1424.22 C 1259.91 1391.69 1245.09 1357.82 1229.7 1324.51 z"/>
<path transform="translate(0,0)" fill="rgb(245,243,237)" d="M 1079.21 1870.14 L 1080.27 1870.44 C 1082.51 1876.17 1081.21 1919.82 1081.31 1930.12 C 1069.73 1936.63 1056.56 1941.05 1044.22 1945.92 C 1042.02 1943.79 1042.72 1889.84 1042.4 1881.69 A 360.46 360.46 0 0 1 1079.21 1870.14 z"/>
<path transform="translate(0,0)" fill="rgb(245,243,237)" d="M 431.414 846.35 C 436.233 847.323 439.056 849.41 442.508 852.843 C 453.826 864.101 459.341 881.796 459.39 897.528 C 459.429 910.093 456.76 923.675 447.635 932.827 C 446.564 933.281 445.654 933.714 444.493 933.972 C 441.351 934.669 437.86 933.824 435.124 932.202 C 427.962 927.956 425.107 917.583 423.368 909.912 C 418.756 889.573 420.112 864.308 431.414 846.35 z"/>
<path transform="translate(0,0)" fill="rgb(245,243,237)" d="M 1766.12 1477.68 C 1781.55 1484.13 1796.28 1492.64 1811.05 1500.47 C 1832.2 1511.67 1853.42 1522.73 1874.07 1534.83 L 1852.38 1543.91 C 1851.35 1544.25 1849.77 1544.61 1848.7 1544.53 C 1843.87 1544.14 1760.4 1499.23 1747.35 1492.78 C 1755.61 1488.92 1761.16 1485.49 1766.12 1477.68 z"/>
<path transform="translate(0,0)" fill="rgb(245,243,237)" d="M 1328.85 1263.4 C 1339.28 1266.45 1349.24 1271.44 1358.62 1276.85 C 1370.13 1296.69 1379.13 1322.89 1388.14 1344.25 C 1392.07 1353.55 1397.54 1363.15 1400.5 1372.71 L 1398.69 1374.61 C 1393.26 1376.51 1387.73 1378.21 1382.25 1379.99 C 1369.84 1362.53 1360.34 1336.09 1351.69 1316.28 C 1344.03 1298.74 1335.55 1281.32 1328.85 1263.4 z"/>
<path transform="translate(0,0)" fill="rgb(245,243,237)" d="M 1065.1 1143.57 C 1075.41 1146.89 1085.92 1151.3 1095.84 1155.67 C 1104.55 1174.01 1112.11 1192.82 1120.25 1211.41 C 1127.35 1227.63 1135.26 1243.72 1141.28 1260.37 C 1130.17 1255.34 1119.12 1250.36 1108.83 1243.78 C 1103.27 1233.18 1099.08 1221.33 1094.37 1210.28 A 2647.58 2647.58 0 0 0 1065.1 1143.57 z"/>
<path transform="translate(0,0)" fill="rgb(245,243,237)" d="M 1279.14 1239.81 C 1288.67 1243.9 1297.81 1248.62 1307 1253.41 C 1315.42 1268.14 1321.82 1284.3 1328.58 1299.85 A 4042.96 4042.96 0 0 0 1358.26 1367.34 C 1348.55 1363.67 1339.29 1358.96 1329.96 1354.42 A 1892.33 1892.33 0 0 1 1298.64 1285.37 C 1292.13 1270.2 1286.39 1254.65 1279.14 1239.81 z"/>
<path transform="translate(0,0)" fill="rgb(245,243,237)" d="M 967.784 1106.43 C 978.577 1108.79 989.45 1113.48 1000.12 1116.6 C 1013.07 1138.32 1033.26 1189.46 1041.31 1213.73 C 1029.2 1210.18 1017.15 1202.14 1006.14 1196.03 C 1002.47 1185.27 997.498 1174.77 993.075 1164.27 A 1445.23 1445.23 0 0 0 967.784 1106.43 z"/>
<path transform="translate(0,0)" fill="rgb(245,243,237)" d="M 196.057 1416.97 C 207.627 1419.09 272.215 1453.7 287.484 1461.29 A 1080.85 1080.85 0 0 1 283.762 1484.67 L 267.353 1476.99 C 233.953 1460.86 200.087 1445.22 167.454 1427.59 C 176.746 1423.55 186.52 1420.4 196.057 1416.97 z"/>
<path transform="translate(0,0)" fill="rgb(245,243,237)" d="M 1340.35 1136.75 C 1343.07 1140.08 1397.64 1267.9 1398.78 1274.57 L 1394.71 1273.29 L 1367.99 1261.28 C 1356.12 1232.06 1342.25 1203.38 1332.01 1173.55 C 1334.45 1161.24 1337.48 1148.97 1340.35 1136.75 z"/>
<path transform="translate(0,0)" fill="rgb(245,243,237)" d="M 1177.95 1300.91 L 1206.31 1314.05 C 1212.56 1324.44 1261.39 1424.28 1260.33 1429.29 L 1256.64 1431.05 L 1241.21 1436.96 C 1232.14 1419.77 1224.4 1401.84 1216.16 1384.24 A 3370.44 3370.44 0 0 1 1177.95 1300.91 z"/>
<path transform="translate(0,0)" fill="rgb(245,243,237)" d="M 354.927 971.105 L 355.961 972.491 C 355.544 979.453 353.85 986.466 352.52 993.312 C 340.084 992.885 327.255 991.811 315.356 996.256 C 306.802 999.452 298.439 1005.69 294.969 1014.4 C 292.976 1019.4 292.972 1024.72 295.309 1029.6 C 298.091 1035.41 303.795 1039.4 309.781 1041.39 C 323.14 1045.84 335.275 1041.83 347.291 1035.92 C 346.842 1041.15 347.086 1050.76 344.06 1054.93 C 341.981 1057.79 338.576 1057.82 335.376 1058.55 C 322.487 1060.26 309.273 1060.77 296.936 1055.89 C 288.432 1052.52 281.561 1046.7 277.992 1038.16 C 273.45 1027.3 274.605 1014.03 279.145 1003.36 C 293.887 968.709 330.5 981.484 353.82 971.589 C 354.191 971.432 354.558 971.267 354.927 971.105 z"/>
<path transform="translate(0,0)" fill="rgb(245,243,237)" d="M 1223.74 1213.44 C 1234.52 1216.81 1245.4 1222.54 1255.77 1227.14 C 1263.29 1240.33 1268.99 1255.17 1275.26 1269.03 L 1309.64 1344.72 C 1298.14 1341.01 1286.38 1334.24 1275.29 1329.2 C 1256.97 1291.15 1242.86 1251.13 1223.74 1213.44 z"/>
<path transform="translate(0,0)" fill="rgb(245,243,237)" d="M 1555.17 184.389 C 1561.61 183.268 1569.54 183.275 1576.01 184.158 C 1581.99 184.974 1590.69 185.323 1594.57 190.435 C 1594.95 192.138 1595.08 193.198 1594.58 194.92 C 1589.85 210.963 1552.78 231.626 1538.38 239.02 A 492.244 492.244 0 0 1 1517.12 248.85 A 2348 2348 0 0 1 1505.84 195.556 C 1521.95 190.482 1538.37 186.341 1555.17 184.389 z"/>
<path transform="translate(0,0)" fill="rgb(245,243,237)" d="M 252.713 636.167 C 256.222 635.879 259.829 635.502 263.35 635.673 C 272.31 636.11 280.71 640.859 286.537 647.536 C 294.773 656.974 298.827 670.408 297.867 682.845 C 296.915 695.175 291.05 703.845 281.81 711.513 C 277.638 713.77 273.579 715.664 268.801 714.115 C 258.574 710.799 250.933 700.31 246.529 690.889 C 240.65 678.313 237.248 658.293 242.607 645.231 C 244.593 640.389 248.131 638.238 252.713 636.167 z"/>
<path transform="translate(0,0)" fill="rgb(245,243,237)" d="M 974.096 1358.9 L 974.196 1359.83 L 975.125 1358.52 C 983.255 1363.68 1040.67 1494.48 1048.74 1513.2 C 1043.04 1515.78 1037.13 1518.02 1031.35 1520.41 L 1030.64 1520.55 C 1030.07 1520.24 1029.4 1520.08 1028.92 1519.63 C 1028.11 1518.87 963.646 1380.67 957.452 1365.88 L 974.096 1358.9 z"/>
<path transform="translate(0,0)" fill="rgb(245,243,237)" d="M 1153.59 1289 C 1160.25 1296.38 1169.99 1320.62 1174.67 1330.75 L 1205.64 1396.91 C 1212.66 1412.13 1219.06 1428.02 1227.43 1442.54 C 1221.27 1445.69 1214.98 1448.15 1208.51 1450.6 L 1207.18 1450.43 C 1201.63 1443.47 1194.23 1423.93 1190 1414.94 C 1171.59 1375.77 1154.53 1335.75 1135.36 1296.98 L 1153.59 1289 z"/>
<path transform="translate(0,0)" fill="rgb(245,243,237)" d="M 673.992 505.087 L 674.942 505.228 C 683.945 511.448 689.429 530.326 691.957 540.412 C 667.401 552.837 639.939 561.314 614.243 571.388 C 611.545 572.312 610.484 572.948 607.638 572.394 C 602.012 561.041 600.118 544.471 597.23 532.046 C 622.753 522.854 648.07 513.109 673.992 505.087 z"/>
<path transform="translate(0,0)" fill="rgb(245,243,237)" d="M 1266.55 754.856 C 1266.96 755.273 1267.4 755.656 1267.77 756.107 C 1271.05 760.174 1329.99 905.251 1330.69 911.027 C 1332.08 922.345 1326.88 937.656 1324.46 948.883 C 1318.9 936.211 1312.86 923.819 1307.57 911.016 C 1291.22 871.497 1276.39 831.332 1259.2 792.168 A 1997.47 1997.47 0 0 0 1266.55 754.856 z"/>
<path transform="translate(0,0)" fill="rgb(245,243,237)" d="M 1048.69 1331.11 C 1049.36 1331.65 1113.08 1469.79 1119.97 1484.4 C 1113.21 1487.63 1106.11 1490.18 1099.11 1492.87 C 1091.49 1472.29 1080.71 1452.87 1071.21 1433.11 C 1056.27 1402.02 1041.5 1370.47 1027.4 1338.99 A 697.05 697.05 0 0 1 1048.69 1331.11 z"/>
<path transform="translate(0,0)" fill="rgb(245,243,237)" d="M 1012.75 1345.09 C 1019.78 1354.23 1028.81 1377.93 1034.21 1389.61 C 1050.95 1425.82 1067.14 1462.59 1085.34 1498.09 C 1078.45 1501.27 1071.37 1504.12 1064.39 1507.1 C 1063.08 1506.26 1062.57 1505.66 1061.88 1504.25 C 1048.63 1477.35 1036.86 1449.48 1024.27 1422.24 C 1013.6 1399.14 1001.81 1376.35 991.907 1352.92 C 998.909 1350.5 1005.82 1347.71 1012.75 1345.09 z"/>
<path transform="translate(0,0)" fill="rgb(245,243,237)" d="M 1081.88 1317.95 L 1084.33 1318.09 C 1091.11 1325.32 1114.95 1382.72 1122.01 1397.89 C 1133.27 1422.1 1144.53 1446.4 1156.72 1470.16 C 1150.32 1473.04 1143.73 1475.6 1137.25 1478.29 L 1135.55 1478.59 C 1130.92 1476.04 1069.18 1340.46 1063.67 1325.83 C 1069.62 1322.99 1075.81 1320.55 1081.88 1317.95 z"/>
<path transform="translate(0,0)" fill="rgb(245,243,237)" d="M 1212.34 1037.39 C 1220.03 1042.44 1277.21 1180.74 1283.09 1196.46 C 1281.46 1204.42 1280.39 1212.38 1278.36 1220.28 C 1274.13 1218.86 1269.91 1215.79 1266.02 1213.54 A 3315.16 3315.16 0 0 1 1226.51 1124.81 C 1221.3 1112.93 1209.45 1091.47 1208.12 1079.58 C 1206.68 1066.7 1210.67 1050.41 1212.34 1037.39 z"/>
<path transform="translate(0,0)" fill="rgb(245,243,237)" d="M 1118.98 1303.99 L 1119.72 1304.02 L 1119.61 1305.05 L 1120.55 1303.96 C 1129.27 1313.15 1153.56 1372.7 1160.3 1387.41 A 4775.81 4775.81 0 0 0 1193.35 1456.98 C 1186.49 1459.92 1179.44 1462.4 1172.43 1464.97 L 1171.87 1464.87 L 1171.88 1465.29 L 1171.48 1463.59 L 1170.81 1464.55 C 1163.38 1454.85 1151.92 1425.82 1146.08 1413.31 C 1130.28 1379.48 1113.41 1345.94 1098.82 1311.57 L 1118.98 1303.99 z"/>
<path transform="translate(0,0)" fill="rgb(245,243,237)" d="M 1188.05 671.003 C 1188.2 671.035 1188.38 671.015 1188.51 671.099 C 1194.7 674.966 1236.21 778.266 1241.94 793.173 C 1239.23 807.12 1237.12 821.198 1234.42 835.161 L 1234.11 834.891 L 1233.08 839.978 C 1231.48 839.346 1230.89 837.425 1230.05 835.947 C 1220.77 816.021 1212.83 795.321 1204.66 774.912 C 1191.87 742.962 1179.25 710.731 1168.46 678.042 L 1188.05 671.003 z"/>
<path transform="translate(0,0)" fill="rgb(245,243,237)" d="M 1225.64 965.692 C 1226.09 966.163 1226.6 966.587 1227 967.106 C 1229.58 970.483 1294.34 1120.82 1294.78 1124.81 C 1295.99 1135.73 1289.86 1154.25 1287.43 1165.2 C 1282.12 1159.77 1248.34 1075.07 1242.42 1061.61 C 1234.48 1043.53 1225.82 1025.76 1217.66 1007.77 A 3864.56 3864.56 0 0 1 1225.64 965.692 z"/>
<path transform="translate(0,0)" fill="rgb(245,243,237)" d="M 1239.52 895.765 C 1247.4 904.314 1299.84 1036.57 1307.17 1055.14 A 1224.7 1224.7 0 0 0 1300.39 1095.08 C 1299.8 1094.41 1299.51 1094.13 1299.01 1093.28 C 1293.79 1084.47 1233.69 944.954 1232.59 939.118 C 1230.24 926.616 1236.36 907.88 1239.52 895.765 z"/>
<path transform="translate(0,0)" fill="rgb(245,243,237)" d="M 1252.61 817.59 C 1257.75 822.177 1312.44 965.346 1319.76 984.017 C 1316.61 998.357 1314.94 1013.09 1313.06 1027.65 C 1300.48 1000.61 1290.18 971.883 1278.7 944.306 C 1269.13 921.324 1258.14 898.944 1248.68 875.929 C 1247.2 872.339 1245.13 867.98 1245.16 864.063 C 1245.16 863.635 1245.2 863.209 1245.21 862.782 C 1245.67 847.936 1249.85 832.214 1252.61 817.59 z"/>
<path transform="translate(0,0)" fill="rgb(245,243,237)" d="M 1353.58 1074.66 C 1354.32 1075.39 1354.46 1075.46 1355.09 1076.48 C 1358.69 1082.24 1360.96 1090.41 1363.62 1096.8 L 1383.52 1144.58 C 1398.61 1180.69 1415.35 1216 1431.06 1251.84 C 1434.18 1258.95 1450.11 1291.37 1448.84 1296.37 L 1446.71 1295.64 A 2087.35 2087.35 0 0 1 1417.63 1282.49 C 1410.28 1266.07 1404.37 1248.77 1397.61 1232.07 A 4295.65 4295.65 0 0 0 1366.37 1158.56 C 1360.29 1144.48 1354.84 1127.39 1345.76 1115.16 C 1347.88 1101.54 1350.65 1088.12 1353.58 1074.66 z"/>
<path transform="translate(0,0)" fill="rgb(245,243,237)" d="M 636.557 458.202 C 643.834 457.428 650.637 458.186 657.661 460.12 C 678.441 465.84 693.176 480.371 703.465 498.8 C 718.164 525.13 724.748 556.812 716.022 586.232 C 710.266 605.638 697.885 624.678 679.581 634.272 C 660.924 644.052 641.543 641.154 622.418 634.961 C 621.09 630.178 617.077 620.634 619.061 616.021 C 621.952 615.526 623.563 617.337 625.997 618.829 C 626.135 618.897 626.271 618.97 626.411 619.033 C 638.831 624.66 653.39 626.261 666.324 621.377 C 680.723 615.939 692.244 603.858 698.45 589.928 C 708.018 568.448 706.259 542.627 697.967 521.035 C 691.192 503.392 679.063 488.012 661.378 480.442 C 640.663 471.574 618.63 476.143 598.425 484.084 C 608.947 469.515 618.63 461.608 636.557 458.202 z"/>
<path transform="translate(0,0)" fill="rgb(245,243,237)" d="M 680.634 1632.02 C 683.77 1631.84 686.636 1631.78 689.652 1632.8 C 701.238 1636.71 709.319 1647.45 714.477 1658.07 C 722.541 1674.69 726.3 1698.8 719.832 1716.49 C 716.558 1725.45 711.472 1730.45 702.946 1734.45 C 698.027 1735.47 694.369 1735.46 689.775 1733.21 C 677.966 1727.43 670.362 1713.82 666.213 1701.79 C 660.325 1684.71 657.9 1660.61 666.49 1644.07 C 669.921 1637.47 673.67 1634.39 680.634 1632.02 z"/>
<path transform="translate(0,0)" fill="rgb(245,243,237)" d="M 1354.51 203.92 L 1355.95 203.942 C 1358.1 208.068 1350.76 236.051 1349.29 242.4 C 1313.67 259.181 1271.05 273.122 1233.91 288.155 L 1227.44 278.492 C 1222.63 271.321 1217.16 265.021 1211.18 258.812 C 1228 250.541 1246.78 244.575 1264.29 237.853 C 1294.27 226.345 1324.13 214.342 1354.51 203.92 z"/>
<path transform="translate(0,0)" fill="rgb(245,243,237)" d="M 1143.99 244.289 C 1160.33 243.212 1180.42 252.302 1192.74 262.648 C 1219.37 285.028 1235.09 322.501 1237.75 356.681 C 1240.27 389.058 1235.5 421.589 1214.04 446.838 C 1210.34 450.283 1204.12 455.9 1198.84 455.792 C 1198.18 453.342 1206.91 431.016 1208.06 426.822 A 135.726 135.726 0 0 0 1212.64 397.232 C 1215 351.163 1201.96 301.455 1170.46 266.702 C 1163.75 259.289 1148.82 250.175 1144.87 245.416 C 1144.57 245.049 1144.28 244.665 1143.99 244.289 z"/>
<path transform="translate(0,0)" fill="rgb(245,243,237)" d="M 868.111 1767 C 882.456 1771.68 896.564 1779.64 910.081 1786.34 L 979.932 1820.84 C 1009.15 1834.91 1040.15 1846.15 1068.84 1861.04 C 1058.78 1865.19 1048.59 1868.73 1038.61 1873.16 C 1036.6 1873.11 1034.93 1872.5 1033.11 1871.68 C 1019.84 1865.72 1007 1858.54 993.831 1852.3 C 941.646 1827.59 889.717 1802.47 837.166 1778.52 L 868.111 1767 z"/>
<path transform="translate(0,0)" fill="rgb(245,243,237)" d="M 630.13 671.377 C 648.811 679.122 666.484 681.093 686.407 677.19 C 690.404 686.844 693.105 697.296 696.529 707.207 C 702.244 723.75 708.391 740.128 713.878 756.752 L 700.148 762.178 C 685.033 767.685 669.954 773.477 654.571 778.193 L 630.13 671.377 z"/>
<path transform="translate(0,0)" fill="rgb(245,243,237)" d="M 1150.82 685.076 C 1152.32 686.355 1220.94 852.644 1228.37 873.405 C 1225.12 886.778 1223.32 900.436 1220.22 913.849 C 1218.52 911.28 1217.18 908.455 1215.75 905.723 C 1200.86 874.014 1188.47 840.851 1174.98 808.51 A 2129.14 2129.14 0 0 1 1144.46 732.955 C 1139.3 719.638 1133.69 706.385 1129.69 692.664 C 1136.66 689.98 1143.78 687.595 1150.82 685.076 z"/>
<path transform="translate(0,0)" fill="rgb(245,243,237)" d="M 285.72 602.324 C 300.444 601.055 313.457 604.505 324.806 614.211 C 338.304 625.755 348.09 643.089 349.246 660.959 A 55.4497 55.4497 0 0 1 334.968 701.641 C 323.52 714.057 308.666 719.333 292.235 720.202 C 289.606 720.185 287.885 720.461 285.543 719.103 C 286.712 714.014 295.435 707.634 298.602 702.839 C 305.672 692.136 307.334 676.843 304.322 664.576 C 301.101 651.457 292.321 638.525 280.488 631.849 C 269.652 625.736 260.002 626.757 248.565 629.838 C 250.385 626.382 252.416 622.874 254.76 619.742 C 262.929 608.829 272.516 604.162 285.72 602.324 z"/>
<path transform="translate(0,0)" fill="rgb(245,243,237)" d="M 422.977 1530.25 C 475.63 1554.36 527.697 1580.2 579.799 1605.49 C 602.691 1616.6 632.713 1628.05 653.35 1642.24 A 2162.29 2162.29 0 0 0 647.562 1663.16 L 632.695 1655.95 L 478.958 1581.3 C 452.031 1568.31 425.031 1552.82 396.796 1542.94 C 405.89 1539.24 414.451 1535.13 422.977 1530.25 z"/>
<path transform="translate(0,0)" fill="rgb(245,243,237)" d="M 796.866 821.001 C 798.753 822.146 799.612 824.224 800.508 826.203 C 815.357 858.967 826.692 893.797 839.646 927.362 C 858.617 976.515 878.689 1025.17 897.258 1074.49 C 890.09 1075.92 884.53 1078.13 878.412 1082.08 C 877.991 1082.3 877.462 1082.08 876.991 1082.03 L 807.795 906.862 C 797.717 880.774 789.283 854.104 778.172 828.414 C 784.492 826.109 790.701 823.694 796.866 821.001 z"/>
<path transform="translate(0,0)" fill="rgb(245,243,237)" d="M 831.747 806.169 C 837.535 813.586 841.321 827.466 844.883 836.372 C 858.645 870.774 871.238 905.646 884.781 940.137 C 903.09 986.764 922.723 1032.85 941.209 1079.41 C 936.28 1078.16 931.227 1077.29 926.241 1076.3 L 913.961 1074.57 C 899.941 1046.89 891.601 1015.7 880.133 986.858 C 863.965 946.201 847.179 906.073 831.944 865.009 C 825.789 848.421 818.59 831.485 814.25 814.326 L 831.747 806.169 z"/>
<path transform="translate(0,0)" fill="rgb(245,243,237)" d="M 484.108 577.004 C 485.196 576.913 486.866 576.661 487.982 576.908 C 491.288 577.638 494.545 581.001 496.623 583.544 C 504.719 593.454 507.09 605.675 505.594 618.01 C 484.337 624.039 464.045 632.89 443.472 640.845 A 2240.68 2240.68 0 0 1 376.111 665.309 L 364.185 669.142 C 364.049 653.344 360.889 642.313 354.74 627.737 C 396.962 608.917 442.026 596.418 484.108 577.004 z"/>
<path transform="translate(0,0)" fill="rgb(245,243,237)" d="M 1113.93 252.308 C 1117.78 252.221 1121.94 252.607 1125.65 253.64 C 1147.65 259.756 1165.96 283.141 1176.3 302.301 C 1196.71 340.163 1204.24 388.953 1191.72 430.528 C 1185.91 449.827 1175.93 462.775 1158.07 472.358 L 1147.95 476.376 C 1169.72 434.052 1173.35 387.798 1158.98 342.24 C 1147.73 306.574 1128.6 275.914 1094.73 258.469 C 1101.05 255.619 1107.06 253.38 1113.93 252.308 z"/>
<path transform="translate(0,0)" fill="rgb(245,243,237)" d="M 897.361 781.9 C 898.557 781.802 899.577 781.97 900.762 782.13 C 910.444 798.415 920.677 830.339 928.173 849.197 L 982.978 985.168 C 993.782 1011.99 1005.64 1038.61 1017.14 1065.14 C 1024.01 1081 1031.53 1097.05 1036.9 1113.5 L 1035.97 1114.02 L 1030.65 1112.14 L 1012.61 1104.37 C 992.157 1069.26 978.307 1025.8 962.847 987.897 A 7325.98 7325.98 0 0 1 918.362 877.225 C 906.653 847.735 894.345 817.725 885.135 787.353 L 897.361 781.9 z"/>
<path transform="translate(0,0)" fill="rgb(245,243,237)" d="M 1366.3 1006.75 C 1371.52 1012.64 1420.97 1134.8 1428.61 1152.96 L 1464.91 1236.9 C 1470.26 1249.26 1498.26 1308.65 1497.93 1317.38 L 1495.39 1317.05 C 1487.9 1313.3 1479.78 1310.31 1471.68 1308.15 C 1442.62 1247.23 1416.77 1184.12 1391.04 1121.73 C 1380.63 1096.5 1367.69 1071.59 1358.78 1045.86 C 1361.08 1032.78 1363.24 1019.68 1366.3 1006.75 z"/>
<path transform="translate(0,0)" fill="rgb(245,243,237)" d="M 1111.91 699.02 C 1112.86 699.743 1112.7 699.479 1113.3 700.424 C 1122.61 714.934 1130.15 740.576 1136.95 757.339 L 1188.88 883.396 C 1195.57 899.633 1209.11 923.658 1212.62 939.479 C 1215.52 952.566 1210.22 972.405 1207.39 985.536 L 1202.5 975.264 C 1173.75 915.786 1148.13 854.194 1123.38 792.944 C 1112.05 764.918 1099.01 736.971 1090.23 708.041 C 1097.14 704.395 1104.62 701.808 1111.91 699.02 z"/>
<path transform="translate(0,0)" fill="rgb(245,243,237)" d="M 644.539 424.402 C 654.262 424.17 664.409 427.069 673.241 430.983 C 703.824 444.532 724.251 471.62 736.065 502.182 C 749.752 537.592 754.733 578.81 738.725 614.372 C 729.77 634.265 715.739 652.669 694.695 660.389 C 670.814 669.149 650.245 667.159 627.465 656.618 L 625.154 647.333 C 644.975 653.362 661.424 654.81 681.042 647.173 C 696.614 639.758 708.978 628.829 717.624 613.831 C 732.685 587.704 735.725 554.688 727.791 525.807 C 720.453 499.097 704.683 470.823 679.722 457.047 C 662.927 447.778 642.929 444.81 624.425 450.442 C 606.715 455.832 595.243 468.188 586.819 484.036 C 584.563 477.838 583 471.689 581.58 465.252 C 584.034 461.165 586.902 457.09 589.968 453.436 C 604.158 436.527 622.494 426.17 644.539 424.402 z"/>
<path transform="translate(0,0)" fill="rgb(245,243,237)" d="M 868.64 793.064 L 870.098 793.19 C 872.365 795.827 898.406 866.993 902.467 877.246 L 991.118 1096.17 L 977.759 1091.44 C 971.499 1089.28 965.395 1086.49 959.291 1083.92 C 944.766 1052.06 932.636 1018.83 919.683 986.292 C 911.339 965.336 902.125 944.744 893.915 923.739 A 6174.93 6174.93 0 0 1 848.165 800.758 C 854.904 797.965 861.781 795.542 868.64 793.064 z"/>
<path transform="translate(0,0)" fill="rgb(245,243,237)" d="M 1397.94 242.149 C 1400.76 241.74 1403.47 241.345 1406.25 242.211 C 1412.81 244.255 1418.36 251.186 1421.05 257.242 C 1423.55 262.885 1424.32 270.906 1421.78 276.654 C 1420.59 279.328 1419.07 280.766 1416.52 282.071 C 1404.29 288.341 1389.57 292.396 1376.65 297.37 L 1265.35 339.16 L 1253.04 343.147 A 1013.17 1013.17 0 0 0 1241.33 302.141 C 1267.37 290.682 1294.55 281.128 1321.07 270.755 C 1346.33 260.873 1371.81 249.427 1397.94 242.149 z"/>
<path transform="translate(0,0)" fill="rgb(245,243,237)" d="M 932.54 768.033 C 935.831 770.164 937.557 775.89 939.055 779.466 L 1085.74 1134.27 L 1074.62 1129.23 C 1069.14 1126.52 1063.57 1124.29 1057.88 1122.07 A 5092.26 5092.26 0 0 1 965.671 901.032 C 948.966 859.294 930.709 817.9 915.951 775.413 C 921.506 773.013 927.016 770.501 932.54 768.033 z"/>
<path transform="translate(0,0)" fill="rgb(245,243,237)" d="M 1072.92 713.983 L 1074.5 714.461 C 1082.7 726.726 1087.47 744.066 1092.92 757.926 A 4402.18 4402.18 0 0 0 1119.05 822.792 A 7156.85 7156.85 0 0 0 1201.86 1011.42 C 1199.43 1026.35 1198.34 1041.61 1196.2 1056.62 C 1194.8 1053.98 1193.53 1051.28 1192.21 1048.61 A 4485.46 4485.46 0 0 1 1091.14 817.9 C 1079.64 789.921 1060.53 749.754 1054.12 721.412 L 1072.92 713.983 z"/>
<path transform="translate(0,0)" fill="rgb(245,243,237)" d="M 963.961 755.976 C 970.238 760.897 999.852 839.844 1005.68 854.186 C 1014.29 875.341 1023.85 896.077 1032.72 917.12 L 1092.44 1058.29 C 1106.15 1089.85 1120.72 1121.08 1133.68 1152.97 C 1130.21 1151.77 1126.79 1150.34 1123.36 1149.02 C 1117.68 1146.75 1112.25 1144.07 1106.77 1141.35 C 1094.2 1116.05 1083.82 1089.86 1072.7 1063.92 L 1022.32 944.89 C 997.366 884.401 970.484 824.048 949.409 762.062 C 954.17 759.858 959.108 757.972 963.961 755.976 z"/>
<path transform="translate(0,0)" fill="rgb(245,243,237)" d="M 1425.95 583.02 C 1427.13 583.31 1427.12 583.049 1427.71 584.062 C 1433.29 593.635 1426.23 639.895 1424.48 651.461 C 1416.75 702.282 1403.94 757.107 1393.21 807.68 C 1383.1 855.386 1374.22 903.884 1361.74 951.015 C 1360.63 948.774 1359.86 946.235 1358.97 943.893 C 1355.01 933.146 1349.21 923.055 1346.08 912.006 C 1356.76 871.08 1363.35 828.906 1371.7 787.468 L 1412.5 587.643 L 1425.95 583.02 z"/>
<path transform="translate(0,0)" fill="rgb(245,243,237)" d="M 710.363 398.982 C 712.665 398.623 714.555 398.726 716.779 399.418 C 743.305 407.686 766.635 438.648 778.714 462.299 C 798.307 500.666 804.425 549.036 790.783 590.282 C 787.787 599.34 782.203 616.379 772.953 620.688 C 769.081 622.492 751.186 630.23 748.176 629.117 C 752.064 621.474 755.756 613.714 758.441 605.558 C 771.45 566.045 762.405 515.009 743.986 478.588 C 727.444 445.88 705.251 424.766 670.383 413.312 C 683.826 409.09 697.098 403.769 710.363 398.982 z"/>
<path transform="translate(0,0)" fill="rgb(245,243,237)" d="M 908.368 1297.97 L 909.064 1298.21 C 911.897 1301.48 932.433 1348.75 936.023 1356.94 A 6655.12 6655.12 0 0 0 810.729 1403.42 L 796.538 1408.2 A 3259.98 3259.98 0 0 1 783.958 1346.51 C 804.675 1337.43 825.999 1330.12 847.149 1322.15 C 867.662 1314.43 887.954 1305.97 908.368 1297.97 z"/>
<path transform="translate(0,0)" fill="rgb(245,243,237)" d="M 763.108 834.047 C 764.635 834.957 765.124 836.431 765.816 838.026 C 775.176 859.607 782.513 882.301 790.785 904.322 C 797.933 923.352 806.066 942.011 813.447 960.955 C 827.476 996.966 842.212 1032.81 855.693 1069.02 C 864.344 1092.26 871.629 1115.96 880.868 1138.99 C 898.54 1183.03 919.267 1225.39 935.64 1270.03 C 929.714 1272.56 923.708 1274.92 917.743 1277.35 C 907.889 1262.31 901.524 1243.59 894.795 1226.92 L 866.405 1155.94 A 8557.9 8557.9 0 0 1 779.412 933.31 C 767.928 902.78 754.818 872.231 744.979 841.158 C 750.958 838.655 757.068 836.403 763.108 834.047 z"/>
<path transform="translate(0,0)" fill="rgb(245,243,237)" d="M 998.637 742.876 L 1000.79 743.034 C 1007 750.886 1016.23 781.469 1020.77 793.119 C 1029.05 814.411 1037.72 835.746 1046.55 856.818 C 1068.17 908.418 1089.79 960.196 1112.78 1011.2 L 1155.85 1106.75 C 1165.38 1127.86 1179.08 1150.18 1182.79 1173.09 L 1170.27 1168.38 L 1156.18 1163.01 C 1145.71 1144.56 1138.06 1124.01 1129.4 1104.64 C 1110.69 1062.8 1092.71 1020.85 1074.94 978.599 L 1024.65 859.245 C 1009.4 823.409 993.512 787.204 980.567 750.468 L 998.637 742.876 z"/>
<path transform="translate(0,0)" fill="rgb(245,243,237)" d="M 876.96 338.007 C 881.016 337.871 886.317 342.129 889.464 344.61 C 924.185 371.98 943.226 417.55 948.103 460.636 C 951.791 493.211 949.357 533.498 928.044 560.277 A 2056.45 2056.45 0 0 1 897.299 571.946 C 896.393 572.283 895.099 572.407 894.139 572.587 C 892.966 566.381 901.474 549.262 902.951 541.676 C 906.894 521.426 907.447 499.176 905.296 478.691 C 899.886 427.162 877.549 385.644 837.313 353.035 C 850.673 348.705 863.818 343.014 876.96 338.007 z"/>
<path transform="translate(0,0)" fill="rgb(245,243,237)" d="M 980.958 299.026 C 982.32 299.734 983.613 300.438 984.914 301.257 C 1017.18 321.566 1039.27 359.481 1047.36 396.113 C 1056.73 438.614 1053.06 484.141 1029.26 521.313 C 1018.64 526.808 1006.8 530.544 995.485 534.38 L 994.462 534.345 C 994.269 532.071 994.532 531.454 995.407 529.415 C 998.36 522.53 1001.82 515.555 1003.92 508.361 C 1011.55 482.275 1010.14 450.629 1005.66 424.134 C 997.936 378.467 976.833 342.396 939.26 315.476 C 953.01 309.658 967.041 304.435 980.958 299.026 z"/>
<path transform="translate(0,0)" fill="rgb(245,243,237)" d="M 1036.98 727.968 C 1041.44 730.8 1061.66 787.334 1065.52 797.002 C 1104.69 894.987 1149 990.998 1192.2 1087.25 C 1189.45 1102.83 1187.71 1118.65 1185.74 1134.35 L 1180.46 1123.25 C 1160.51 1082.53 1143.16 1040.45 1124.77 999.013 A 4182.06 4182.06 0 0 1 1016.18 736.566 C 1023.01 733.51 1030.05 730.817 1036.98 727.968 z"/>
<path transform="translate(0,0)" fill="rgb(245,243,237)" d="M 930.207 319.088 A 68.266 68.266 0 0 1 940.704 324.746 C 969.871 343.699 990.502 388.346 997.099 421.391 C 1004.33 457.59 1003.74 506.979 982.485 538.795 C 971.308 545.463 957.218 548.008 945.248 553.539 L 943.404 553.682 C 943.732 547.685 948.656 539.885 950.379 533.8 A 190.092 190.092 0 0 0 956.465 458.106 C 952.158 421.749 937.594 382.636 912.415 355.456 C 905.331 347.809 897.123 341.492 888.983 335.03 A 1260.49 1260.49 0 0 1 930.207 319.088 z"/>
<path transform="translate(0,0)" fill="rgb(245,243,237)" d="M 824.862 357.041 C 827.984 357.145 831.48 358.378 834.191 359.88 C 860.683 374.567 883.397 420.027 891.056 448.302 C 901.917 488.402 903.21 539.758 881.796 576.85 C 870.015 584.352 854.683 588.876 841.627 593.978 C 841.44 592.25 841.292 592.869 841.92 591.323 C 860.217 546.273 861.433 509.787 847.24 463.012 C 836.436 427.405 815.455 392.165 781.776 374.3 C 796.254 368.797 810.211 362.169 824.862 357.041 z"/>
<path transform="translate(0,0)" fill="rgb(245,243,237)" d="M 770.926 376.956 C 774.355 377.131 777.749 379.22 780.646 380.996 C 815.588 402.409 835.583 446.547 843.856 485 C 852.026 522.976 850.292 564.092 828.699 597.527 C 817.178 603.949 804.428 609.01 791.943 613.237 L 790.648 612.46 C 793.994 604.963 797.116 597.443 799.478 589.57 C 813.088 544.204 805.311 493.785 782.866 452.58 C 769.481 428.009 749.616 402.987 721.707 394.885 A 979.957 979.957 0 0 0 770.926 376.956 z"/>
<path transform="translate(0,0)" fill="rgb(245,243,237)" d="M 1031.77 281.029 C 1033.28 281.212 1034.66 281.704 1036.07 282.275 C 1061.33 292.523 1083.77 331.01 1093.24 354.991 C 1108.94 394.757 1110.62 445.426 1093.03 484.937 C 1084.36 504.423 1063.69 508.19 1045.23 515.185 C 1044.89 514.895 1044.38 514.728 1044.23 514.313 C 1043.6 512.594 1047.81 504.857 1048.58 503.124 C 1051.7 496.079 1053.93 488.524 1055.77 481.049 A 184.89 184.89 0 0 0 1055.98 396.404 C 1046.5 354.636 1025.11 320.146 988.848 297.082 A 1852.58 1852.58 0 0 1 1031.77 281.029 z"/>
<path transform="translate(0,0)" fill="rgb(245,243,237)" d="M 1083.65 262.237 C 1089.67 263.504 1095.4 266.436 1100.56 269.728 C 1129.63 288.271 1147.79 326.26 1155.04 358.895 C 1164.05 399.456 1159.49 443.899 1136.79 479.202 C 1124.34 485.37 1111.56 490.373 1098.43 494.868 L 1097.47 494.722 C 1097.18 493.096 1109.11 462.066 1110.68 454.12 C 1115.59 429.327 1114.75 402.564 1108.88 378.016 C 1098.88 336.19 1077.68 300.312 1040.64 277.655 C 1054.39 271.463 1069.28 266.811 1083.65 262.237 z"/>
<path transform="translate(0,0)" fill="rgb(245,243,237)" d="M 1473.89 143.113 C 1475.78 143.208 1476.18 143.568 1477.73 144.557 C 1485.54 160.215 1494.83 219.288 1498.92 239.868 A 15337.4 15337.4 0 0 1 1539.16 442.355 C 1529.1 446.99 1518.45 450.82 1508.17 454.965 C 1505.07 451.123 1449.19 185.986 1442.82 156.148 C 1452.94 151.007 1462.93 146.201 1473.89 143.113 z"/>
<path transform="translate(0,0)" fill="rgb(245,243,237)" d="M 634.372 1396.83 L 635.648 1397.17 C 639.584 1403.21 649.116 1449.4 651.649 1459.85 L 463.613 1531.94 L 453.641 1527.02 C 446.106 1523.06 437.855 1520.56 430.163 1516.82 C 431.095 1504.22 432.908 1491.65 434.451 1479.11 C 456.363 1468.51 479.628 1460.23 502.168 1451.04 L 634.372 1396.83 z"/>
<path transform="translate(0,0)" fill="rgb(245,243,237)" d="M 654.129 1475.94 L 654.882 1476.28 C 655.685 1477.22 656.206 1478.03 656.512 1479.25 C 660.275 1494.19 662.773 1509.54 666.287 1524.57 C 673.125 1553.81 681.153 1582.95 688.366 1612.14 C 678.623 1616.31 670.928 1620.03 663.033 1627.2 C 647.74 1621.02 633.08 1612.97 618.317 1605.62 A 3131.91 3131.91 0 0 0 568.917 1582.06 C 540.949 1569.18 513.754 1554.68 485.598 1542.21 L 654.129 1475.94 z"/>
<path transform="translate(0,0)" fill="rgb(245,243,237)" d="M 505.671 827.342 C 507.458 827.169 506.5 827.017 508.417 828.298 C 510.541 839.09 512.52 849.846 515.019 860.564 C 517.472 871.086 521.603 883.338 521.933 894.096 C 522.31 906.389 516.698 926.484 514.504 939.033 C 508.74 971.992 503.511 1004.99 497.303 1037.88 L 436.625 1376.04 L 420.66 1465.21 C 417.211 1484.31 412.676 1503.98 411.816 1523.39 C 404.58 1526.81 394.414 1533.13 386.467 1533.69 C 386.264 1516.55 390.832 1498.66 393.772 1481.79 L 406.576 1407.61 C 424.841 1302.1 442.562 1196.38 462.357 1091.14 A 9442.31 9442.31 0 0 0 487.662 955.259 C 491.816 931.52 498.066 906.216 497.72 882.098 C 497.462 864.06 491.15 847.865 478.169 835.229 C 487.246 831.884 496.035 828.631 505.671 827.342 z"/>
<path transform="translate(0,0)" fill="rgb(245,243,237)" d="M 1330.64 330.079 L 1331.61 331.096 C 1329.78 346.001 1326.37 360.87 1323.71 375.661 C 1314.02 429.518 1301.43 483.379 1294.61 537.666 A 1287.03 1287.03 0 0 0 1220.21 567.142 C 1217.5 558.412 1214.11 549.841 1210.97 541.256 C 1202.93 520.799 1194.2 500.771 1185.76 480.493 C 1203.02 474.204 1217.09 466.902 1229.2 452.729 C 1251.55 426.57 1256.37 391.286 1253.87 358.032 C 1279.7 350.063 1305.56 340.184 1330.64 330.079 z"/>
<path transform="translate(0,0)" fill="rgb(245,243,237)" d="M 1393.16 593.939 L 1393.8 594.123 C 1396.2 598.297 1342.84 852.053 1337.41 882.01 C 1330.32 867.902 1324.69 852.839 1318.62 838.251 C 1305.39 802.19 1290.72 765.738 1273.37 731.475 C 1274.77 719.45 1278.18 707.381 1280.55 695.493 A 4483.25 4483.25 0 0 0 1292.08 632.786 C 1306.14 625.981 1321.55 621.161 1336.21 615.771 A 2829.69 2829.69 0 0 0 1393.16 593.939 z"/>
<path transform="translate(0,0)" fill="rgb(245,243,237)" d="M 1562.31 1413.86 C 1569.96 1415.45 1597.46 1431.37 1606.58 1435.72 C 1686.47 1473.86 1767.39 1510.23 1844.64 1553.6 A 1422.87 1422.87 0 0 0 1843.93 1611.77 A 731.77 731.77 0 0 1 1801.3 1590.06 C 1769.99 1573.49 1737.45 1559.02 1705.45 1543.82 A 7461.15 7461.15 0 0 1 1527.82 1458.18 C 1516.11 1452.45 1503.98 1447.65 1492.34 1441.81 C 1515.43 1431.91 1539.4 1424.17 1562.31 1413.86 z"/>
<path transform="translate(0,0)" fill="rgb(245,243,237)" d="M 941.79 1372.03 L 943.398 1372.05 C 946.129 1373.86 1004.73 1507.67 1015.61 1526.01 C 995.794 1535.21 975.279 1542.64 954.924 1550.52 L 865.632 1585.01 C 856.882 1588.45 848.276 1592.32 839.634 1596.03 C 832.629 1572.43 828.082 1547.35 822.9 1523.27 A 2545.84 2545.84 0 0 0 800.302 1426.11 C 814.899 1419.26 830.883 1414.62 845.975 1408.89 L 941.79 1372.03 z"/>
<path transform="translate(0,0)" fill="rgb(245,243,237)" d="M 1561.87 531.159 C 1565.5 535.74 1601.04 716.481 1605.35 737.86 L 1705.39 1224.47 A 15461.4 15461.4 0 0 1 1743.67 1403.11 C 1748.23 1425.34 1754.29 1447.77 1757.48 1470.22 C 1752.92 1474.79 1745.07 1480.41 1738.51 1481.11 C 1735.12 1481.47 1733.44 1480.24 1730.93 1478.17 C 1721.09 1456 1714.84 1416.32 1709.6 1391.7 L 1676.2 1232.75 L 1598.24 869.65 C 1575.54 760.776 1554.69 651.511 1530.19 543 A 1160.96 1160.96 0 0 0 1561.87 531.159 z"/>
<path transform="translate(0,0)" fill="rgb(245,243,237)" d="M 1387.44 128.693 C 1403.09 136.832 1418.22 146.906 1433.33 156.046 C 1439.61 177.03 1442.02 198.996 1447.08 220.269 A 7920.87 7920.87 0 0 1 1498.45 458.158 C 1445.28 481.141 1389.85 499.437 1336.08 521 A 631.554 631.554 0 0 1 1311.39 530.746 L 1351.52 321.027 C 1371.94 312.643 1421.78 299.594 1432.16 281.456 C 1436.48 273.917 1436.47 264.716 1433.93 256.596 C 1430.8 246.591 1424.07 237.587 1414.56 232.88 C 1398.76 225.062 1382.9 232.145 1367.63 237.413 C 1372.69 201.011 1382.17 165.115 1387.44 128.693 z"/>
<path transform="translate(0,0)" fill="rgb(245,243,237)" d="M 729.683 847.034 C 735.461 854.776 754.213 909.868 759.086 922.769 L 811.435 1058.72 A 6985.32 6985.32 0 0 0 901.859 1281.92 C 878.166 1293.42 852.632 1301.5 828.082 1310.99 C 811.806 1317.2 795.809 1324.14 779.54 1330.39 C 769.268 1294.59 762.183 1257.22 753.861 1220.88 L 699.278 975.183 C 691.365 939.711 684.636 903.752 674.631 868.794 C 692.616 860.742 711.517 854.715 729.683 847.034 z"/>
<path transform="translate(0,0)" fill="rgb(245,243,237)" d="M 550.476 408.902 L 552.294 409.278 C 555.896 415.89 556.731 426.361 558.507 433.778 C 566.328 466.446 573.449 499.074 580.573 531.891 C 587.644 564.47 595.662 597.001 603.258 629.477 L 778.287 1398.46 L 836.745 1654.63 C 844.662 1688.15 850.236 1724.85 860.688 1757.37 C 852.721 1760.86 841.619 1767.2 833 1767.78 L 831.699 1766.63 C 826.472 1739.1 819.099 1711.87 812.852 1684.55 A 9916.35 9916.35 0 0 0 773.539 1514.13 L 679.238 1105.98 L 574.438 660.723 A 11518.3 11518.3 0 0 0 541.269 523.239 C 533.159 489.47 525.578 455.578 516.208 422.129 A 944.023 944.023 0 0 1 550.476 408.902 z"/>
<path transform="translate(0,0)" fill="rgb(245,243,237)" d="M 530.536 935.775 C 531.354 936.855 531.839 937.76 532.162 939.084 C 540.666 973.908 547.052 1009.33 555.058 1044.28 L 632.348 1380.65 C 592.576 1398.08 551.441 1413 511.243 1429.5 C 487.07 1439.4 462.591 1448.6 438.335 1458.31 C 443.09 1435.38 446.541 1412.05 450.646 1388.99 A 12062.5 12062.5 0 0 0 473.124 1262.56 L 509.76 1058.93 C 516.875 1017.99 522.137 976.438 530.536 935.775 z"/>
<path transform="translate(0,0)" fill="rgb(245,243,237)" d="M 1620.99 1304.19 C 1625.68 1304.49 1630.15 1305.21 1634.53 1306.99 C 1644.1 1310.88 1652.62 1318.47 1656.35 1328.25 C 1658.83 1334.73 1659.12 1341.83 1656.11 1348.19 C 1652.76 1355.28 1645.88 1360.44 1639.05 1363.91 C 1628 1369.53 1615.98 1373.9 1604.53 1378.67 A 4172.15 4172.15 0 0 1 1536.27 1406.56 L 1362.8 1476.25 L 874.482 1668.98 C 869.144 1670.72 863.781 1673.54 858.609 1675.79 C 853.791 1654.02 847.493 1632.62 842.907 1610.8 C 867.284 1605.28 901.736 1589.51 925.645 1579.9 L 1033.76 1537.57 A 20550.9 20550.9 0 0 0 1476.31 1362.37 C 1508.9 1349.41 1541.03 1335.29 1573.51 1322.04 C 1588.85 1315.78 1604.87 1308.07 1620.99 1304.19 z"/>
<path transform="translate(0,0)" fill="rgb(245,243,237)" d="M 1441.35 650.059 C 1446.95 666.094 1449.34 684.847 1452.81 701.5 A 7333.91 7333.91 0 0 0 1477.31 818.996 L 1562.59 1208.64 C 1569.08 1238.91 1576.7 1268.88 1582.93 1299.23 C 1572.22 1303.8 1527.09 1324.45 1518.47 1324.29 C 1503.83 1283.97 1485.29 1244.93 1468.29 1205.57 A 15867.7 15867.7 0 0 1 1404.35 1053.78 C 1398.17 1039.14 1374.87 990.842 1374.33 979.469 C 1373.83 968.971 1382.13 937.305 1384.62 925.183 L 1418.09 767.034 C 1426.31 728.244 1431.97 688.522 1441.35 650.059 z"/>
<path transform="translate(0,0)" fill="rgb(245,243,237)" d="M 1684.7 413.426 A 87.7849 87.7849 0 0 1 1705.63 414.63 C 1710.1 415.452 1716.95 416.474 1719.25 420.981 C 1720.74 423.909 1719.79 427.304 1718.5 430.096 C 1709.06 450.494 1677.99 466.544 1658.82 475.6 C 1641.49 483.787 1623.42 490.379 1605.54 497.228 A 5390.04 5390.04 0 0 1 1512.12 531.955 L 1293.82 614.14 L 691.733 843.938 L 671.847 851.726 A 2413.67 2413.67 0 0 1 659.29 794.535 C 669.241 790.073 680.195 786.836 690.472 783.066 C 710.824 775.602 731.18 768.021 751.394 760.187 C 850.49 721.785 950.45 685.785 1049.86 648.217 L 1458.47 492.16 L 1569.72 449.381 C 1605.83 435.567 1645.83 415.944 1684.7 413.426 z"/>
<path transform="translate(0,0)" fill="rgb(245,243,237)" d="M 164.179 1435.59 C 192.277 1452.2 222.326 1465.83 251.716 1479.98 C 293.218 1499.96 334.964 1520 376.121 1540.66 A 7181.71 7181.71 0 0 0 580.208 1640.63 C 602.33 1650.86 623.942 1664 647.201 1671.33 C 647.475 1683.89 650.547 1697.74 655.044 1709.48 C 660.639 1724.08 670.376 1740.37 685.438 1746.59 C 702.743 1753.73 718.651 1744.72 734.257 1737.88 C 751.382 1748.16 771.505 1755.85 789.584 1764.65 C 831.827 1785.22 873.903 1806.41 916.622 1825.97 A 4303.54 4303.54 0 0 1 993.532 1861.87 C 1006.69 1868.19 1020.69 1874.23 1033.13 1881.83 A 1573.05 1573.05 0 0 0 1033.66 1934.84 C 1033.87 1938 1033.76 1940.45 1033.07 1943.55 C 1025.26 1943.22 975.198 1915.42 964.657 1910.45 L 496.564 1687 L 318.803 1601.58 C 267.527 1577.04 215.637 1552.86 165.36 1526.36 C 163.641 1496.32 164.247 1465.7 164.179 1435.59 z"/>
<path transform="translate(0,0)" fill="rgb(85,70,69)" d="M 329.614 1533.05 C 332.976 1533.13 336.064 1533.29 339.187 1534.66 C 347.05 1538.12 352.587 1545.93 355.362 1553.82 C 358.142 1561.73 358.551 1571.07 354.468 1578.62 C 351.248 1584.57 346.933 1587.26 340.58 1589.03 C 336.621 1588.57 333.004 1587.88 329.419 1586.05 C 321.774 1582.14 316.24 1574.16 313.846 1566.07 C 311.668 1558.72 311.797 1550.26 315.598 1543.45 C 318.942 1537.46 323.204 1534.92 329.614 1533.05 z"/>
<path transform="translate(0,0)" fill="rgb(245,243,237)" d="M 330.041 1542.64 C 330.546 1542.73 331.053 1542.82 331.556 1542.93 C 336.795 1544.06 340.364 1547.9 342.948 1552.41 C 346.082 1557.88 347.503 1564.34 345.641 1570.49 C 344.501 1574.26 342.551 1575.78 339.196 1577.57 C 335.315 1576.4 332.214 1574.68 329.355 1571.77 C 325.225 1567.56 322.76 1561.92 323.026 1555.99 C 323.293 1550.02 325.736 1546.53 330.041 1542.64 z"/>
<path transform="translate(0,0)" fill="rgb(245,243,237)" d="M 1521.71 546.126 C 1524.9 550.472 1558.19 718.182 1562.83 740.461 L 1637.53 1096.71 C 1647.07 1142.01 1658.31 1187.03 1667.58 1232.39 L 1698.96 1382.27 C 1705.69 1414.7 1710.23 1449.52 1722.24 1480.5 C 1707.71 1475.22 1652.94 1448.77 1642.01 1440.34 C 1640.05 1438.83 1639.06 1437.05 1637.93 1434.88 C 1633.84 1419.42 1628.73 1403.52 1627.43 1387.54 C 1645.79 1380.49 1662.66 1372.04 1671.45 1353.31 C 1676.02 1343.56 1675.86 1333.66 1671.94 1323.72 C 1666.56 1310.07 1655.5 1298.06 1641.97 1292.3 C 1626.09 1285.54 1613.35 1288.61 1598.15 1294.69 L 1490.49 804.204 C 1481.78 764.17 1472.54 724.156 1464.51 683.985 C 1457.4 648.414 1451.5 612.696 1443.43 577.31 C 1468.39 565.155 1495.52 555.355 1521.71 546.126 z"/>
<path transform="translate(0,0)" fill="rgb(245,243,237)" d="M 458.942 392.892 C 472.907 397.461 495.351 414.31 508.285 423.013 L 619.911 888.568 L 673.736 1125.15 L 756.043 1478.16 A 12385.5 12385.5 0 0 1 796.433 1656.01 C 804.981 1694.1 813.977 1732 821.609 1770.29 C 799.62 1758.77 769.471 1742.33 746.178 1734.89 C 748.639 1733.04 751.227 1731.15 753.317 1728.88 C 764.384 1716.81 766.788 1698.23 766.087 1682.52 C 765.07 1659.76 757.604 1632.82 739.878 1617.24 C 728.451 1607.2 717.821 1606.41 703.393 1607.08 C 698.289 1591.46 694.979 1574.99 691.059 1559.01 C 681.334 1519.38 672.88 1479.42 663.06 1439.85 A 19720.1 19720.1 0 0 1 548.852 936.784 C 542.292 901.642 533.071 866.73 525.478 831.773 C 521.156 811.875 517.336 783.917 510.982 765.212 C 509.832 761.829 508.57 760.944 505.4 759.505 C 502.925 759.51 501.499 759.86 499.486 761.242 C 497.86 762.358 497.127 763.313 496.674 765.266 C 495.25 771.414 495.951 778.795 495.849 785.104 C 495.655 797.152 495.221 809.894 492.705 821.708 L 492.378 823.2 C 486.773 825.919 480.787 827.649 474.868 829.543 A 122.621 122.621 0 0 0 472.13 828.516 C 459.936 824.134 447.841 823.73 436.078 829.685 C 425.373 835.104 418.294 844.11 414.544 855.398 C 407.619 876.241 407.145 908.375 417.602 928.137 C 421.715 935.909 428.122 942.625 436.771 945.104 C 451.962 949.457 468.945 939.038 481.539 931.682 A 4054.21 4054.21 0 0 1 457.451 1066.34 L 422.219 1260.34 L 391.674 1435.12 C 386.207 1466.06 382.236 1498.54 374.238 1528.91 C 350.244 1514.36 323.602 1504.26 298.95 1490.85 C 305.294 1456.79 309.604 1422.5 314.35 1388.2 L 335.929 1234.31 L 418.342 664.003 L 478.454 641.141 C 488.405 637.372 500.365 634.082 509.53 628.785 C 511.829 627.456 513.638 625.37 514.827 623.012 C 519.073 614.595 517.482 603.111 514.657 594.521 C 511.415 584.662 503.382 570.98 493.734 566.679 C 491.538 565.701 488.662 565.032 486.274 565.471 C 480.386 566.555 473.762 569.936 468.112 572.112 A 1171.28 1171.28 0 0 1 429.619 586.603 C 434.22 544.253 442.056 501.643 448.668 459.514 C 452.116 437.538 453.809 414.506 458.942 392.892 z"/>
<path transform="translate(0,0)" fill="rgb(85,70,69)" d="M 583.637 847.037 C 587.93 846.897 591.131 847.262 594.952 849.382 C 601.878 853.224 606.298 860.085 608.181 867.661 C 610.079 875.296 609.546 883.761 605.229 890.505 C 601.655 896.089 597.36 897.624 591.159 899.183 C 588.017 898.757 584.422 898.097 581.556 896.729 C 574.861 893.532 569.606 886.293 567.124 879.476 C 564.712 872.855 564.173 865.397 567.374 858.945 C 570.824 851.989 576.576 849.32 583.637 847.037 z"/>
<path transform="translate(0,0)" fill="rgb(245,243,237)" d="M 580.688 856.923 C 585.426 856.819 588.895 857.085 592.531 860.451 C 596.461 864.089 598.405 869.207 598.312 874.512 C 598.208 880.504 596.413 884.059 592.216 888.2 C 587.346 887.911 584.784 887.365 581.269 883.8 C 576.922 879.393 574.667 873.868 574.964 867.653 C 575.206 862.607 577.14 860.325 580.688 856.923 z"/>
</svg>